<?xml version="1.0"?>
 <!-- Created with Inkscape (http://www.inkscape.org/) --> <svg width="515.98242" height="121.15832" viewBox="0 0 515.98242 121.15832" version="1.1" id="svg1" inkscape:version="1.3 (0e150ed6c4, 2023-07-21)" sodipodi:docname="speakers.svg" xmlns:inkscape="http://www.inkscape.org/namespaces/inkscape" xmlns:sodipodi="http://sodipodi.sourceforge.net/DTD/sodipodi-0.dtd" xmlns="http://www.w3.org/2000/svg" xmlns:svg="http://www.w3.org/2000/svg"><defs id="defs1"> <marker style="overflow:visible" id="marker11" refX="0" refY="0" orient="auto-start-reverse" inkscape:stockid="Dart arrow" markerWidth="1" markerHeight="1" viewBox="0 0 1 1" inkscape:isstock="true" inkscape:collect="always" preserveAspectRatio="xMidYMid"> <path style="fill:currentColor;fill-rule:evenodd;stroke:none" d="M 0,0 5,-5 -12.5,0 5,5 Z" transform="scale(-0.5)" id="path11"></path> </marker> <marker style="overflow:visible" id="DartArrow" refX="0" refY="0" orient="auto-start-reverse" inkscape:stockid="Dart arrow" markerWidth="1" markerHeight="1" viewBox="0 0 1 1" inkscape:isstock="true" inkscape:collect="always" preserveAspectRatio="xMidYMid"> <path style="fill:currentColor;fill-rule:evenodd;stroke:none" d="M 0,0 5,-5 -12.5,0 5,5 Z" transform="scale(-0.5)" id="path6"></path> </marker> </defs>   <g inkscape:label="Layer 1" inkscape:groupmode="layer" id="layer1" transform="translate(130.0573,-55.285513)"> <circle style="fill:#00ff00;stroke:none;stroke-width:2.01738;stroke-linecap:round;stroke-dasharray:none" id="path8-85-0" cx="-65.761795" cy="140.0593" r="4.6215997"></circle> <g id="g17" transform="matrix(2.8566776,0,0,2.8566776,-150.80454,-102.6473)"> <circle style="fill:#00ff00;stroke:none;stroke-width:0.706198;stroke-linecap:round;stroke-dasharray:none" id="path8-85-0-3" cx="153.77306" cy="84.961143" r="1.6178234"></circle> <circle style="fill:#00ff00;stroke:none;stroke-width:0.706198;stroke-linecap:round;stroke-dasharray:none" id="path8-85-0-1" cx="158.61569" cy="84.961143" r="1.6178234"></circle> <circle style="fill:#00ff00;stroke:none;stroke-width:0.706198;stroke-linecap:round;stroke-dasharray:none" id="path8-85-0-87" cx="163.45833" cy="84.961143" r="1.6178234"></circle> <circle style="fill:#00ff00;stroke:none;stroke-width:0.706198;stroke-linecap:round;stroke-dasharray:none" id="path8-85-0-6" cx="168.30096" cy="84.961143" r="1.6178234"></circle> <circle style="fill:#00ff00;stroke:none;stroke-width:0.706198;stroke-linecap:round;stroke-dasharray:none" id="path8-85-0-28" cx="173.1436" cy="84.961143" r="1.6178234"></circle> <circle style="fill:#00ff00;stroke:none;stroke-width:0.706198;stroke-linecap:round;stroke-dasharray:none" id="path8-85-0-5" cx="75.669586" cy="84.961143" r="1.6178234"></circle> <circle style="fill:#00ff00;stroke:none;stroke-width:0.706198;stroke-linecap:round;stroke-dasharray:none" id="path8-85-0-0" cx="80.512222" cy="84.961143" r="1.6178234"></circle> <circle style="fill:#00ff00;stroke:none;stroke-width:0.706198;stroke-linecap:round;stroke-dasharray:none" id="path8-85-0-8" cx="85.354858" cy="84.961143" r="1.6178234"></circle> <circle style="fill:#00ff00;stroke:none;stroke-width:0.706198;stroke-linecap:round;stroke-dasharray:none" id="path8-85-0-82" cx="90.197495" cy="84.961143" r="1.6178234"></circle> <circle style="fill:#00ff00;stroke:none;stroke-width:0.706198;stroke-linecap:round;stroke-dasharray:none" id="path8-85-0-2" cx="95.040131" cy="84.961143" r="1.6178234"></circle> </g> <rect style="fill:#000080;stroke:none;stroke-width:0.426571;stroke-linecap:round;stroke-dasharray:none" id="rect8-3-6" width="9.801424" height="9.6888094" x="-70.662498" y="100.84302"></rect> <g id="g14-04-6" transform="matrix(2.1612512,0,0,2.1612512,-191.14764,-50.685157)"> <path style="fill:none;stroke:#000000;stroke-width:0.8;stroke-linecap:round;stroke-dasharray:none" d="m 56.299864,94.456251 3.431058,3.391633" id="path13-6-6"></path> <path style="fill:none;stroke:#000000;stroke-width:0.8;stroke-linecap:round;stroke-dasharray:none" d="m 56.299864,97.847884 3.431058,-3.391633" id="path14-76-0"></path> </g> <g id="g18" transform="matrix(2.8566776,0,0,2.8566776,-150.80454,-102.6473)"> <g id="g14-04-6-0" transform="matrix(0.75656113,0,0,0.75656113,55.973278,18.189712)"> <path style="fill:none;stroke:#000000;stroke-width:0.8;stroke-linecap:round;stroke-dasharray:none" d="m 56.299864,94.456251 3.431058,3.391633" id="path13-6-6-4"></path> <path style="fill:none;stroke:#000000;stroke-width:0.8;stroke-linecap:round;stroke-dasharray:none" d="m 56.299864,97.847884 3.431058,-3.391633" id="path14-76-0-6"></path> </g> <g id="g14-04-6-6" transform="matrix(0.75656113,0,0,0.75656113,60.78132,18.189712)"> <path style="fill:none;stroke:#000000;stroke-width:0.8;stroke-linecap:round;stroke-dasharray:none" d="m 56.299864,94.456251 3.431058,3.391633" id="path13-6-6-2"></path> <path style="fill:none;stroke:#000000;stroke-width:0.8;stroke-linecap:round;stroke-dasharray:none" d="m 56.299864,97.847884 3.431058,-3.391633" id="path14-76-0-65"></path> </g> <g id="g14-04-6-6-6" transform="matrix(0.75656113,0,0,0.75656113,26.952059,18.189712)"> <path style="fill:none;stroke:#000000;stroke-width:0.8;stroke-linecap:round;stroke-dasharray:none" d="m 56.299864,94.456251 3.431058,3.391633" id="path13-6-6-2-5"></path> <path style="fill:none;stroke:#000000;stroke-width:0.8;stroke-linecap:round;stroke-dasharray:none" d="m 56.299864,97.847884 3.431058,-3.391633" id="path14-76-0-65-8"></path> </g> </g> <path sodipodi:type="star" style="fill:#800000;stroke:none;stroke-width:0.7;stroke-linecap:round;stroke-dasharray:none" id="path9-0-9" inkscape:flatsided="false" sodipodi:sides="5" sodipodi:cx="62.567902" sodipodi:cy="97.847885" sodipodi:r1="4.8335199" sodipodi:r2="2.41676" sodipodi:arg1="-0.26179939" sodipodi:arg2="0.36651914" inkscape:rounded="0" inkscape:randomized="0" d="m 67.236723,96.596878 -2.412582,2.117096 0.376284,3.187646 -2.759007,-1.64029 -2.915349,1.34291 0.707422,-3.130851 -2.178069,-2.357682 3.196218,-0.294687 1.569228,-2.800031 1.26795,2.948721 z" inkscape:transform-center-x="-0.07792881" inkscape:transform-center-y="-0.39524334" transform="matrix(0.99686427,0,0,1.02241,-128.21142,23.33936)"></path> <g id="g16" transform="matrix(2.8566776,0,0,2.8566776,-150.80454,-102.6473)"> <path sodipodi:type="star" style="fill:#800000;stroke:none;stroke-width:0.7;stroke-linecap:round;stroke-dasharray:none" id="path9-0-9-3" inkscape:flatsided="false" sodipodi:sides="5" sodipodi:cx="62.567902" sodipodi:cy="97.847885" sodipodi:r1="4.8335199" sodipodi:r2="2.41676" sodipodi:arg1="-0.26179939" sodipodi:arg2="0.36651914" inkscape:rounded="0" inkscape:randomized="0" d="m 67.236723,96.596878 -2.412582,2.117096 0.376284,3.187646 -2.759007,-1.64029 -2.915349,1.34291 0.707422,-3.130851 -2.178069,-2.357682 3.196218,-0.294687 1.569228,-2.800031 1.26795,2.948721 z" inkscape:transform-center-x="-0.027278419" inkscape:transform-center-y="-0.13835909" transform="matrix(0.34895931,0,0,0.35790176,87.622047,44.102512)"></path> <path sodipodi:type="star" style="fill:#800000;stroke:none;stroke-width:0.7;stroke-linecap:round;stroke-dasharray:none" id="path9-0-9-2" inkscape:flatsided="false" sodipodi:sides="5" sodipodi:cx="62.567902" sodipodi:cy="97.847885" sodipodi:r1="4.8335199" sodipodi:r2="2.41676" sodipodi:arg1="-0.26179939" sodipodi:arg2="0.36651914" inkscape:rounded="0" inkscape:randomized="0" d="m 67.236723,96.596878 -2.412582,2.117096 0.376284,3.187646 -2.759007,-1.64029 -2.915349,1.34291 0.707422,-3.130851 -2.178069,-2.357682 3.196218,-0.294687 1.569228,-2.800031 1.26795,2.948721 z" inkscape:transform-center-x="-0.027278419" inkscape:transform-center-y="-0.13835909" transform="matrix(0.34895931,0,0,0.35790176,92.432936,44.102512)"></path> <path sodipodi:type="star" style="fill:#800000;stroke:none;stroke-width:0.7;stroke-linecap:round;stroke-dasharray:none" id="path9-0-9-1" inkscape:flatsided="false" sodipodi:sides="5" sodipodi:cx="62.567902" sodipodi:cy="97.847885" sodipodi:r1="4.8335199" sodipodi:r2="2.41676" sodipodi:arg1="-0.26179939" sodipodi:arg2="0.36651914" inkscape:rounded="0" inkscape:randomized="0" d="m 67.236723,96.596878 -2.412582,2.117096 0.376284,3.187646 -2.759007,-1.64029 -2.915349,1.34291 0.707422,-3.130851 -2.178069,-2.357682 3.196218,-0.294687 1.569228,-2.800031 1.26795,2.948721 z" inkscape:transform-center-x="-0.027278419" inkscape:transform-center-y="-0.13835909" transform="matrix(0.34895931,0,0,0.35790176,117.46359,44.102512)"></path> <path sodipodi:type="star" style="fill:#800000;stroke:none;stroke-width:0.7;stroke-linecap:round;stroke-dasharray:none" id="path9-0-9-8" inkscape:flatsided="false" sodipodi:sides="5" sodipodi:cx="62.567902" sodipodi:cy="97.847885" sodipodi:r1="4.8335199" sodipodi:r2="2.41676" sodipodi:arg1="-0.26179939" sodipodi:arg2="0.36651914" inkscape:rounded="0" inkscape:randomized="0" d="m 67.236723,96.596878 -2.412582,2.117096 0.376284,3.187646 -2.759007,-1.64029 -2.915349,1.34291 0.707422,-3.130851 -2.178069,-2.357682 3.196218,-0.294687 1.569228,-2.800031 1.26795,2.948721 z" inkscape:transform-center-x="-0.027278419" inkscape:transform-center-y="-0.13835909" transform="matrix(0.34895931,0,0,0.35790176,122.27448,44.102512)"></path> <path sodipodi:type="star" style="fill:#800000;stroke:none;stroke-width:0.7;stroke-linecap:round;stroke-dasharray:none" id="path9-0-9-5" inkscape:flatsided="false" sodipodi:sides="5" sodipodi:cx="62.567902" sodipodi:cy="97.847885" sodipodi:r1="4.8335199" sodipodi:r2="2.41676" sodipodi:arg1="-0.26179939" sodipodi:arg2="0.36651914" inkscape:rounded="0" inkscape:randomized="0" d="m 67.236723,96.596878 -2.412582,2.117096 0.376284,3.187646 -2.759007,-1.64029 -2.915349,1.34291 0.707422,-3.130851 -2.178069,-2.357682 3.196218,-0.294687 1.569228,-2.800031 1.26795,2.948721 z" inkscape:transform-center-x="-0.027278419" inkscape:transform-center-y="-0.13835909" transform="matrix(0.34895931,0,0,0.35790176,127.08537,44.102512)"></path> </g> <path sodipodi:type="spiral" style="fill:none;fill-rule:evenodd;stroke:#008080;stroke-width:0.264583" id="path1-0" sodipodi:cx="66.640816" sodipodi:cy="49.585354" sodipodi:expansion="1" sodipodi:revolution="3" sodipodi:radius="1.7029907" sodipodi:argument="-19.634954" sodipodi:t0="0" d="m 66.640816,49.585354 c 0.06038,-0.06038 0.111174,0.0516 0.100349,0.10035 -0.02933,0.132112 -0.198552,0.15335 -0.301049,0.100349 -0.183342,-0.09481 -0.204821,-0.340994 -0.100349,-0.501748 0.153316,-0.235913 0.485368,-0.257818 0.702447,-0.10035 0.289333,0.20988 0.311465,0.630429 0.10035,0.903147 -0.265666,0.343188 -0.775816,0.365447 -1.103846,0.10035 -0.397289,-0.321068 -0.419625,-0.921387 -0.10035,-1.304546 0.376254,-0.451539 1.067073,-0.473924 1.505245,-0.10035 0.505886,0.431307 0.528306,1.212837 0.10035,1.705945 -0.48627,0.5603 -1.358653,0.582744 -1.906644,0.10035 -0.614763,-0.541173 -0.637224,-1.504509 -0.10035,-2.107343 0.596031,-0.669261 1.650394,-0.691735 2.308043,-0.100351" transform="matrix(3.3312912,0,0,2.9773475,-287.2919,-59.104434)"></path> <g id="g20" transform="matrix(2.8566776,0,0,2.8566776,-150.80454,-102.6473)"> <path sodipodi:type="spiral" style="fill:none;fill-rule:evenodd;stroke:#008080;stroke-width:0.264583" id="path1-0-2" sodipodi:cx="66.640816" sodipodi:cy="49.585354" sodipodi:expansion="1" sodipodi:revolution="3" sodipodi:radius="1.7029907" sodipodi:argument="-19.634954" sodipodi:t0="0" d="m 66.640816,49.585354 c 0.06038,-0.06038 0.111174,0.0516 0.100349,0.10035 -0.02933,0.132112 -0.198552,0.15335 -0.301049,0.100349 -0.183342,-0.09481 -0.204821,-0.340994 -0.100349,-0.501748 0.153316,-0.235913 0.485368,-0.257818 0.702447,-0.10035 0.289333,0.20988 0.311465,0.630429 0.10035,0.903147 -0.265666,0.343188 -0.775816,0.365447 -1.103846,0.10035 -0.397289,-0.321068 -0.419625,-0.921387 -0.10035,-1.304546 0.376254,-0.451539 1.067073,-0.473924 1.505245,-0.10035 0.505886,0.431307 0.528306,1.212837 0.10035,1.705945 -0.48627,0.5603 -1.358653,0.582744 -1.906644,0.10035 -0.614763,-0.541173 -0.637224,-1.504509 -0.10035,-2.107343 0.596031,-0.669261 1.650394,-0.691735 2.308043,-0.100351" transform="matrix(1.1661418,0,0,1.0422413,41.678616,15.242485)"></path> <path sodipodi:type="spiral" style="fill:none;fill-rule:evenodd;stroke:#008080;stroke-width:0.264583" id="path1-0-8" sodipodi:cx="66.640816" sodipodi:cy="49.585354" sodipodi:expansion="1" sodipodi:revolution="3" sodipodi:radius="1.7029907" sodipodi:argument="-19.634954" sodipodi:t0="0" d="m 66.640816,49.585354 c 0.06038,-0.06038 0.111174,0.0516 0.100349,0.10035 -0.02933,0.132112 -0.198552,0.15335 -0.301049,0.100349 -0.183342,-0.09481 -0.204821,-0.340994 -0.100349,-0.501748 0.153316,-0.235913 0.485368,-0.257818 0.702447,-0.10035 0.289333,0.20988 0.311465,0.630429 0.10035,0.903147 -0.265666,0.343188 -0.775816,0.365447 -1.103846,0.10035 -0.397289,-0.321068 -0.419625,-0.921387 -0.10035,-1.304546 0.376254,-0.451539 1.067073,-0.473924 1.505245,-0.10035 0.505886,0.431307 0.528306,1.212837 0.10035,1.705945 -0.48627,0.5603 -1.358653,0.582744 -1.906644,0.10035 -0.614763,-0.541173 -0.637224,-1.504509 -0.10035,-2.107343 0.596031,-0.669261 1.650394,-0.691735 2.308043,-0.100351" transform="matrix(1.1661418,0,0,1.0422413,46.733557,15.242485)"></path> <path sodipodi:type="spiral" style="fill:none;fill-rule:evenodd;stroke:#008080;stroke-width:0.264583" id="path1-0-3" sodipodi:cx="66.640816" sodipodi:cy="49.585354" sodipodi:expansion="1" sodipodi:revolution="3" sodipodi:radius="1.7029907" sodipodi:argument="-19.634954" sodipodi:t0="0" d="m 66.640816,49.585354 c 0.06038,-0.06038 0.111174,0.0516 0.100349,0.10035 -0.02933,0.132112 -0.198552,0.15335 -0.301049,0.100349 -0.183342,-0.09481 -0.204821,-0.340994 -0.100349,-0.501748 0.153316,-0.235913 0.485368,-0.257818 0.702447,-0.10035 0.289333,0.20988 0.311465,0.630429 0.10035,0.903147 -0.265666,0.343188 -0.775816,0.365447 -1.103846,0.10035 -0.397289,-0.321068 -0.419625,-0.921387 -0.10035,-1.304546 0.376254,-0.451539 1.067073,-0.473924 1.505245,-0.10035 0.505886,0.431307 0.528306,1.212837 0.10035,1.705945 -0.48627,0.5603 -1.358653,0.582744 -1.906644,0.10035 -0.614763,-0.541173 -0.637224,-1.504509 -0.10035,-2.107343 0.596031,-0.669261 1.650394,-0.691735 2.308043,-0.100351" transform="matrix(1.1661418,0,0,1.0422413,51.788498,15.242485)"></path> <path sodipodi:type="spiral" style="fill:none;fill-rule:evenodd;stroke:#008080;stroke-width:0.264583" id="path1-0-23" sodipodi:cx="66.640816" sodipodi:cy="49.585354" sodipodi:expansion="1" sodipodi:revolution="3" sodipodi:radius="1.7029907" sodipodi:argument="-19.634954" sodipodi:t0="0" d="m 66.640816,49.585354 c 0.06038,-0.06038 0.111174,0.0516 0.100349,0.10035 -0.02933,0.132112 -0.198552,0.15335 -0.301049,0.100349 -0.183342,-0.09481 -0.204821,-0.340994 -0.100349,-0.501748 0.153316,-0.235913 0.485368,-0.257818 0.702447,-0.10035 0.289333,0.20988 0.311465,0.630429 0.10035,0.903147 -0.265666,0.343188 -0.775816,0.365447 -1.103846,0.10035 -0.397289,-0.321068 -0.419625,-0.921387 -0.10035,-1.304546 0.376254,-0.451539 1.067073,-0.473924 1.505245,-0.10035 0.505886,0.431307 0.528306,1.212837 0.10035,1.705945 -0.48627,0.5603 -1.358653,0.582744 -1.906644,0.10035 -0.614763,-0.541173 -0.637224,-1.504509 -0.10035,-2.107343 0.596031,-0.669261 1.650394,-0.691735 2.308043,-0.100351" transform="matrix(1.1661418,0,0,1.0422413,56.843439,15.242485)"></path> </g> <text xml:space="preserve" style="font-size:15.1166px;font-family:'Product Sans';-inkscape-font-specification:'Product Sans';fill:#008080;stroke:none;stroke-width:2.28533" x="-130.48056" y="92.688011" id="text1-9"><tspan sodipodi:role="line" id="tspan1-6" style="fill:#008080;stroke:none;stroke-width:2.28535" x="-130.48056" y="92.688011">Behnaz</tspan><tspan sodipodi:role="line" style="fill:#008080;stroke:none;stroke-width:2.28535" x="-130.48056" y="111.58376" id="tspan2-8"></tspan></text> <text xml:space="preserve" style="font-size:15.1166px;font-family:'Product Sans';-inkscape-font-specification:'Product Sans';fill:#000080;stroke:none;stroke-width:2.28533" x="-108.16843" y="110.3276" id="text3-5"><tspan sodipodi:role="line" id="tspan3-1" style="stroke-width:2.28535" x="-108.16843" y="110.3276">Luis</tspan></text> <text xml:space="preserve" style="font-size:15.1166px;font-family:'Product Sans';-inkscape-font-specification:'Product Sans';fill:#aa0000;stroke:none;stroke-width:2.28533" x="-131.14569" y="127.62496" id="text4-8"><tspan sodipodi:role="line" id="tspan4-5" style="stroke-width:2.28535" x="-131.14569" y="127.62496">Krishna</tspan></text> <text xml:space="preserve" style="font-size:15.1166px;font-family:'Product Sans';-inkscape-font-specification:'Product Sans';fill:#00ff00;stroke:none;stroke-width:2.28533" x="-112.40112" y="144.63902" id="text5-2"><tspan sodipodi:role="line" id="tspan5-9" style="stroke-width:2.28535" x="-112.40112" y="144.63902">Uros</tspan></text> <text xml:space="preserve" style="font-size:15.1166px;font-family:'Product Sans';-inkscape-font-specification:'Product Sans';fill:#1a1a1a;stroke:none;stroke-width:2.28533" x="-119.55122" y="161.76381" id="text6-0"><tspan sodipodi:role="line" id="tspan6-7" style="stroke-width:2.28535" x="-119.55122" y="161.76381">Noise</tspan></text> <g id="g19" transform="matrix(2.8566776,0,0,2.8566776,-150.80454,-102.6473)"> <rect style="fill:#000080;stroke:none;stroke-width:0.149324;stroke-linecap:round;stroke-dasharray:none" id="rect8-3-6-0" width="3.431057" height="3.3916354" x="49.091541" y="71.233208"></rect> <rect style="fill:#000080;stroke:none;stroke-width:0.149324;stroke-linecap:round;stroke-dasharray:none" id="rect8-3-6-2" width="3.431057" height="3.3916354" x="54.129585" y="71.233208"></rect> <rect style="fill:#000080;stroke:none;stroke-width:0.149324;stroke-linecap:round;stroke-dasharray:none" id="rect8-3-6-7" width="3.431057" height="3.3916354" x="59.167633" y="71.233208"></rect> <rect style="fill:#000080;stroke:none;stroke-width:0.149324;stroke-linecap:round;stroke-dasharray:none" id="rect8-3-6-24" width="3.431057" height="3.3916354" x="64.205681" y="71.233208"></rect> </g> <path style="fill:none;stroke:#000000;stroke-width:2.28533;marker-start:url(#marker11);marker-end:url(#DartArrow)" d="M -28.400626,69.568826 V 170.73051 H 371.64181" id="path10"></path> </g> </svg> 